<svg width="157" height="31" viewBox="0 0 157 31" fill="none" xmlns="http://www.w3.org/2000/svg">
<path d="M42.4347 22V7.45455H48.0028C49.054 7.45455 49.9276 7.62026 50.6236 7.9517C51.3243 8.27841 51.8475 8.72585 52.1932 9.29403C52.5436 9.86222 52.7188 10.5062 52.7188 11.2259C52.7188 11.8177 52.6051 12.3243 52.3778 12.7457C52.1506 13.1624 51.8452 13.5009 51.4616 13.7614C51.0781 14.0218 50.6496 14.2088 50.1761 14.3224V14.4645C50.6922 14.4929 51.187 14.6515 51.6605 14.9403C52.1387 15.2244 52.5294 15.6269 52.8324 16.1477C53.1354 16.6686 53.2869 17.2983 53.2869 18.0369C53.2869 18.7898 53.1046 19.4669 52.7401 20.0682C52.3755 20.6648 51.8262 21.1359 51.0923 21.4815C50.3584 21.8272 49.4351 22 48.3224 22H42.4347ZM45.0696 19.7983H47.9034C48.8598 19.7983 49.5488 19.616 49.9702 19.2514C50.3963 18.8821 50.6094 18.4086 50.6094 17.831C50.6094 17.4001 50.5028 17.0118 50.2898 16.6662C50.0767 16.3158 49.7737 16.0412 49.3807 15.8423C48.9877 15.6387 48.5189 15.5369 47.9744 15.5369H45.0696V19.7983ZM45.0696 13.6406H47.6761C48.1307 13.6406 48.5402 13.5578 48.9048 13.392C49.2694 13.2216 49.5559 12.9825 49.7642 12.6747C49.9773 12.3622 50.0838 11.9929 50.0838 11.5668C50.0838 11.0033 49.8849 10.5393 49.4872 10.1747C49.0942 9.81013 48.5095 9.62784 47.733 9.62784H45.0696V13.6406ZM60.2241 22.2131C59.1587 22.2131 58.2354 21.9787 57.4542 21.5099C56.6729 21.0412 56.0669 20.3854 55.636 19.5426C55.2099 18.6998 54.9968 17.715 54.9968 16.5881C54.9968 15.4612 55.2099 14.474 55.636 13.6264C56.0669 12.7789 56.6729 12.1207 57.4542 11.652C58.2354 11.1832 59.1587 10.9489 60.2241 10.9489C61.2894 10.9489 62.2127 11.1832 62.994 11.652C63.7752 12.1207 64.3789 12.7789 64.805 13.6264C65.2359 14.474 65.4513 15.4612 65.4513 16.5881C65.4513 17.715 65.2359 18.6998 64.805 19.5426C64.3789 20.3854 63.7752 21.0412 62.994 21.5099C62.2127 21.9787 61.2894 22.2131 60.2241 22.2131ZM60.2383 20.1534C60.8159 20.1534 61.2989 19.9948 61.6871 19.6776C62.0754 19.3556 62.3642 18.9247 62.5536 18.3849C62.7478 17.8452 62.8448 17.2438 62.8448 16.581C62.8448 15.9134 62.7478 15.3097 62.5536 14.7699C62.3642 14.2254 62.0754 13.7921 61.6871 13.4702C61.2989 13.1482 60.8159 12.9872 60.2383 12.9872C59.6464 12.9872 59.154 13.1482 58.761 13.4702C58.3728 13.7921 58.0816 14.2254 57.8874 14.7699C57.698 15.3097 57.6033 15.9134 57.6033 16.581C57.6033 17.2438 57.698 17.8452 57.8874 18.3849C58.0816 18.9247 58.3728 19.3556 58.761 19.6776C59.154 19.9948 59.6464 20.1534 60.2383 20.1534ZM72.392 22.2131C71.3267 22.2131 70.4034 21.9787 69.6222 21.5099C68.8409 21.0412 68.2348 20.3854 67.804 19.5426C67.3778 18.6998 67.1648 17.715 67.1648 16.5881C67.1648 15.4612 67.3778 14.474 67.804 13.6264C68.2348 12.7789 68.8409 12.1207 69.6222 11.652C70.4034 11.1832 71.3267 10.9489 72.392 10.9489C73.4574 10.9489 74.3807 11.1832 75.1619 11.652C75.9432 12.1207 76.5469 12.7789 76.973 13.6264C77.4039 14.474 77.6193 15.4612 77.6193 16.5881C77.6193 17.715 77.4039 18.6998 76.973 19.5426C76.5469 20.3854 75.9432 21.0412 75.1619 21.5099C74.3807 21.9787 73.4574 22.2131 72.392 22.2131ZM72.4062 20.1534C72.9839 20.1534 73.4669 19.9948 73.8551 19.6776C74.2434 19.3556 74.5322 18.9247 74.7216 18.3849C74.9157 17.8452 75.0128 17.2438 75.0128 16.581C75.0128 15.9134 74.9157 15.3097 74.7216 14.7699C74.5322 14.2254 74.2434 13.7921 73.8551 13.4702C73.4669 13.1482 72.9839 12.9872 72.4062 12.9872C71.8144 12.9872 71.322 13.1482 70.929 13.4702C70.5407 13.7921 70.2495 14.2254 70.0554 14.7699C69.866 15.3097 69.7713 15.9134 69.7713 16.581C69.7713 17.2438 69.866 17.8452 70.0554 18.3849C70.2495 18.9247 70.5407 19.3556 70.929 19.6776C71.322 19.9948 71.8144 20.1534 72.4062 20.1534ZM82.1452 18.5767L82.1381 15.473H82.5501L86.4705 11.0909H89.4748L84.6523 16.4602H84.1197L82.1452 18.5767ZM79.8015 22V7.45455H82.3725V22H79.8015ZM86.6481 22L83.0969 17.0355L84.8299 15.2244L89.7234 22H86.6481ZM91.1882 22V11.0909H93.6456V12.9446H93.7734C94.0007 12.3196 94.3771 11.8319 94.9027 11.4815C95.4283 11.1264 96.0556 10.9489 96.7848 10.9489C97.5234 10.9489 98.1461 11.1288 98.6527 11.4886C99.1641 11.8437 99.5239 12.3291 99.7322 12.9446H99.8459C100.087 12.3385 100.495 11.8556 101.067 11.4957C101.645 11.1312 102.329 10.9489 103.12 10.9489C104.124 10.9489 104.943 11.2661 105.577 11.9006C106.212 12.535 106.529 13.4607 106.529 14.6776V22H103.951V15.0753C103.951 14.3982 103.771 13.9034 103.411 13.5909C103.051 13.2737 102.611 13.1151 102.09 13.1151C101.47 13.1151 100.985 13.3092 100.634 13.6974C100.289 14.081 100.116 14.5805 100.116 15.196V22H97.5945V14.9688C97.5945 14.4053 97.424 13.9555 97.0831 13.6193C96.7469 13.2831 96.3066 13.1151 95.7621 13.1151C95.3928 13.1151 95.0566 13.2098 94.7536 13.3991C94.4505 13.5838 94.209 13.8466 94.0291 14.1875C93.8492 14.5237 93.7592 14.9167 93.7592 15.3665V22H91.1882ZM112.277 22.2202C111.585 22.2202 110.963 22.0971 110.409 21.8509C109.859 21.5999 109.424 21.2306 109.102 20.7429C108.785 20.2552 108.626 19.6539 108.626 18.9389C108.626 18.3234 108.74 17.8144 108.967 17.4119C109.194 17.0095 109.504 16.6875 109.897 16.446C110.29 16.2045 110.733 16.0223 111.225 15.8991C111.723 15.7713 112.236 15.679 112.767 15.6222C113.406 15.5559 113.924 15.4967 114.322 15.4446C114.72 15.3878 115.009 15.3026 115.189 15.1889C115.373 15.0705 115.466 14.8883 115.466 14.642V14.5994C115.466 14.0644 115.307 13.6501 114.99 13.3565C114.672 13.063 114.216 12.9162 113.619 12.9162C112.989 12.9162 112.49 13.0535 112.12 13.3281C111.756 13.6027 111.51 13.9271 111.382 14.3011L108.981 13.9602C109.171 13.2973 109.483 12.7434 109.919 12.2983C110.354 11.8485 110.887 11.5123 111.517 11.2898C112.146 11.0625 112.842 10.9489 113.605 10.9489C114.13 10.9489 114.654 11.0104 115.174 11.1335C115.695 11.2566 116.171 11.4602 116.602 11.7443C117.033 12.0237 117.378 12.4048 117.639 12.8878C117.904 13.3707 118.037 13.9744 118.037 14.6989V22H115.565V20.5014H115.48C115.324 20.8045 115.103 21.0885 114.819 21.3537C114.54 21.6141 114.187 21.8248 113.761 21.9858C113.34 22.142 112.845 22.2202 112.277 22.2202ZM112.944 20.331C113.46 20.331 113.908 20.2292 114.287 20.0256C114.665 19.8172 114.957 19.5426 115.16 19.2017C115.368 18.8608 115.473 18.4891 115.473 18.0866V16.8011C115.392 16.8674 115.255 16.929 115.061 16.9858C114.871 17.0426 114.658 17.0923 114.422 17.1349C114.185 17.1776 113.95 17.2154 113.718 17.2486C113.486 17.2817 113.285 17.3101 113.115 17.3338C112.731 17.3859 112.388 17.4711 112.085 17.5895C111.782 17.7079 111.543 17.8736 111.368 18.0866C111.192 18.295 111.105 18.5649 111.105 18.8963C111.105 19.3698 111.278 19.7273 111.623 19.9688C111.969 20.2102 112.409 20.331 112.944 20.331ZM120.622 22V11.0909H123.115V12.9091H123.228C123.427 12.2794 123.768 11.794 124.251 11.4531C124.739 11.1075 125.295 10.9347 125.92 10.9347C126.062 10.9347 126.221 10.9418 126.396 10.956C126.576 10.9654 126.725 10.982 126.843 11.0057V13.3707C126.734 13.3329 126.562 13.2997 126.325 13.2713C126.093 13.2382 125.868 13.2216 125.65 13.2216C125.181 13.2216 124.76 13.3234 124.386 13.527C124.017 13.7259 123.725 14.0028 123.512 14.358C123.299 14.7131 123.193 15.1226 123.193 15.5866V22H120.622ZM135.382 26.0909V20.2812H135.276C135.143 20.5464 134.951 20.8281 134.7 21.1264C134.449 21.42 134.118 21.6709 133.706 21.8793C133.294 22.0876 132.776 22.1918 132.151 22.1918C131.294 22.1918 130.527 21.9716 129.849 21.5312C129.172 21.0909 128.637 20.4517 128.244 19.6136C127.851 18.7756 127.655 17.7576 127.655 16.5597C127.655 15.3475 127.854 14.3248 128.251 13.4915C128.654 12.6534 129.196 12.0213 129.878 11.5952C130.56 11.1643 131.32 10.9489 132.158 10.9489C132.797 10.9489 133.322 11.0578 133.734 11.2756C134.146 11.4886 134.473 11.7467 134.714 12.0497C134.956 12.348 135.143 12.6297 135.276 12.8949H135.432V11.0909H137.96V26.0909H135.382ZM132.868 20.0824C133.412 20.0824 133.876 19.9356 134.26 19.642C134.643 19.3437 134.935 18.9295 135.134 18.3991C135.332 17.8688 135.432 17.2509 135.432 16.5455C135.432 15.84 135.332 15.2268 135.134 14.706C134.939 14.1851 134.651 13.7803 134.267 13.4915C133.888 13.2027 133.422 13.0582 132.868 13.0582C132.295 13.0582 131.817 13.2074 131.433 13.5057C131.05 13.804 130.761 14.2159 130.567 14.7415C130.373 15.267 130.276 15.8684 130.276 16.5455C130.276 17.2273 130.373 17.8357 130.567 18.3707C130.766 18.901 131.057 19.3201 131.44 19.6278C131.829 19.9309 132.304 20.0824 132.868 20.0824ZM143.173 7.45455V22H140.602V7.45455H143.173ZM147.415 26.0909C147.065 26.0909 146.74 26.0625 146.442 26.0057C146.149 25.9536 145.914 25.892 145.739 25.821L146.336 23.8182C146.71 23.9271 147.043 23.9792 147.337 23.9744C147.631 23.9697 147.889 23.8774 148.111 23.6974C148.338 23.5223 148.53 23.2287 148.686 22.8168L148.907 22.2273L144.951 11.0909H147.678L150.192 19.3295H150.306L152.827 11.0909H155.561L151.194 23.321C150.99 23.8987 150.72 24.3935 150.384 24.8054C150.048 25.2221 149.636 25.5393 149.148 25.7571C148.665 25.9796 148.087 26.0909 147.415 26.0909Z" fill="black"/>
<path d="M0 0H24V30.8148L12 24.0741L0 30.8148V0Z" fill="black"/>
</svg>
